rotated_Sprint_07200001_forces_filt10Hz.mot
version=1
nRows=48
nColumns=19
inDegrees=yes
endheader
time	R_ground_force_vx	R_ground_force_vy	R_ground_force_vz	R_ground_force_px	R_ground_force_py	R_ground_force_pz	R_ground_torque_x	R_ground_torque_y	R_ground_torque_z	L_ground_force_vx	L_ground_force_vy	L_ground_force_vz	L_ground_force_px	L_ground_force_py	L_ground_force_pz	L_ground_torque_x	L_ground_torque_y	L_ground_torque_z	
2.384500	  0.000000	  0.000000	  0.000000	  1.115646	  0.000000	 -0.200578	  0.000000	  0.000000	  0.000000	  0.000000	  0.000000	  0.000000	  0.151098	  0.000000	 -0.242249	  0.000000	  0.000000	  0.000000
2.385000	  0.000000	  0.000000	  0.000000	  1.117909	  0.000000	 -0.199012	  0.000000	  0.000000	  0.000000	  0.000000	  0.000000	  0.000000	  0.149956	  0.000000	 -0.245026	  0.000000	  0.000000	  0.000000
2.385500	  0.000000	  0.000000	  0.000000	  1.119920	  0.000000	 -0.197663	  0.000000	  0.000000	  0.000000	  0.000000	  0.000000	  0.000000	  0.148923	  0.000000	 -0.247771	  0.000000	  0.000000	  0.000000
2.386000	  0.000000	  0.000000	  0.000000	  1.121930	  0.000000	 -0.196314	  0.000000	  0.000000	  0.000000	  0.000000	  0.000000	  0.000000	  0.147890	  0.000000	 -0.250516	  0.000000	  0.000000	  0.000000
2.386500	  0.000000	  0.000000	  0.000000	  1.123941	  0.000000	 -0.194966	  0.000000	  0.000000	  0.000000	  0.000000	  0.000000	  0.000000	  0.146857	  0.000000	 -0.253260	  0.000000	  0.000000	  0.000000
2.387000	  0.000000	  0.000000	  0.000000	  1.125951	  0.000000	 -0.193617	  0.000000	  0.000000	  0.000000	  0.000000	  0.000000	  0.000000	  0.145824	  0.000000	 -0.256005	  0.000000	  0.000000	  0.000000
2.387500	  0.000000	  0.000000	  0.000000	  1.127962	  0.000000	 -0.192268	  0.000000	  0.000000	  0.000000	  0.000000	  0.000000	  0.000000	  0.144790	  0.000000	 -0.258750	  0.000000	  0.000000	  0.000000
2.388000	  0.000000	  0.000000	  0.000000	  1.129973	  0.000000	 -0.190919	  0.000000	  0.000000	  0.000000	  0.000000	  0.000000	  0.000000	  0.143757	  0.000000	 -0.261495	  0.000000	  0.000000	  0.000000
2.388500	  0.000000	  0.000000	  0.000000	  1.131983	  0.000000	 -0.189570	  0.000000	  0.000000	  0.000000	  0.000000	  0.000000	  0.000000	  0.142724	  0.000000	 -0.264240	  0.000000	  0.000000	  0.000000
2.389000	  0.000000	  0.000000	  0.000000	  1.133994	  0.000000	 -0.188222	  0.000000	  0.000000	  0.000000	  0.000000	  0.000000	  0.000000	  0.141691	  0.000000	 -0.266984	  0.000000	  0.000000	  0.000000
2.389500	  0.000000	  0.000000	  0.000000	  1.136004	  0.000000	 -0.186873	  0.000000	  0.000000	  0.000000	  0.000000	  0.000000	  0.000000	  0.140658	  0.000000	 -0.269729	  0.000000	  0.000000	  0.000000
2.390000	  0.000000	  0.000000	  0.000000	  1.138015	  0.000000	 -0.185524	  0.000000	  0.000000	  0.000000	  0.000000	  0.000000	  0.000000	  0.139625	  0.000000	 -0.272474	  0.000000	  0.000000	  0.000000
2.390500	  0.000000	  0.000000	  0.000000	  1.139742	  0.000000	 -0.184373	  0.000000	  0.000000	  0.000000	  0.000000	  0.000000	  0.000000	  0.138882	  0.000000	 -0.275258	  0.000000	  0.000000	  0.000000
2.391000	  0.000000	  0.000000	  0.000000	  1.141469	  0.000000	 -0.183223	  0.000000	  0.000000	  0.000000	  0.000000	  0.000000	  0.000000	  0.138139	  0.000000	 -0.278043	  0.000000	  0.000000	  0.000000
2.391500	  0.000000	  0.000000	  0.000000	  1.143196	  0.000000	 -0.182072	  0.000000	  0.000000	  0.000000	  0.000000	  0.000000	  0.000000	  0.137395	  0.000000	 -0.280827	  0.000000	  0.000000	  0.000000
2.392000	  0.000000	  0.000000	  0.000000	  1.144923	  0.000000	 -0.180921	  0.000000	  0.000000	  0.000000	  0.000000	  0.000000	  0.000000	  0.136652	  0.000000	 -0.283612	  0.000000	  0.000000	  0.000000
2.392500	  0.000000	  0.000000	  0.000000	  1.146650	  0.000000	 -0.179770	  0.000000	  0.000000	  0.000000	  0.000000	  0.000000	  0.000000	  0.135909	  0.000000	 -0.286396	  0.000000	  0.000000	  0.000000
2.393000	  0.000000	  0.000000	  0.000000	  1.148376	  0.000000	 -0.178620	  0.000000	  0.000000	  0.000000	  0.000000	  0.000000	  0.000000	  0.135166	  0.000000	 -0.289180	  0.000000	  0.000000	  0.000000
2.393500	  0.000000	  0.000000	  0.000000	  1.150103	  0.000000	 -0.177469	  0.000000	  0.000000	  0.000000	  0.000000	  0.000000	  0.000000	  0.134423	  0.000000	 -0.291965	  0.000000	  0.000000	  0.000000
2.394000	  0.000000	  0.000000	  0.000000	  1.151830	  0.000000	 -0.176318	  0.000000	  0.000000	  0.000000	  0.000000	  0.000000	  0.000000	  0.133679	  0.000000	 -0.294749	  0.000000	  0.000000	  0.000000
2.394500	  0.000000	  0.000000	  0.000000	  1.153557	  0.000000	 -0.175168	  0.000000	  0.000000	  0.000000	  0.000000	  0.000000	  0.000000	  0.132936	  0.000000	 -0.297534	  0.000000	  0.000000	  0.000000
2.395000	  0.000000	  0.000000	  0.000000	  1.155284	  0.000000	 -0.174017	  0.000000	  0.000000	  0.000000	  0.000000	  0.000000	  0.000000	  0.132193	  0.000000	 -0.300318	  0.000000	  0.000000	  0.000000
2.395500	  0.000000	  0.000000	  0.000000	  1.156682	  0.000000	 -0.172993	  0.000000	  0.000000	  0.000000	  0.000000	  0.000000	  0.000000	  0.131648	  0.000000	 -0.303135	  0.000000	  0.000000	  0.000000
2.396000	  0.000000	  0.000000	  0.000000	  1.158080	  0.000000	 -0.171969	  0.000000	  0.000000	  0.000000	  0.000000	  0.000000	  0.000000	  0.131103	  0.000000	 -0.305952	  0.000000	  0.000000	  0.000000
2.396500	  0.000000	  0.000000	  0.000000	  1.159477	  0.000000	 -0.170945	  0.000000	  0.000000	  0.000000	  0.000000	  0.000000	  0.000000	  0.130558	  0.000000	 -0.308769	  0.000000	  0.000000	  0.000000
2.397000	  0.000000	  0.000000	  0.000000	  1.160875	  0.000000	 -0.169921	  0.000000	  0.000000	  0.000000	  0.000000	  0.000000	  0.000000	  0.130013	  0.000000	 -0.311586	  0.000000	  0.000000	  0.000000
2.397500	  0.000000	  0.000000	  0.000000	  1.162273	  0.000000	 -0.168897	  0.000000	  0.000000	  0.000000	  0.000000	  0.000000	  0.000000	  0.129469	  0.000000	 -0.314404	  0.000000	  0.000000	  0.000000
2.398000	  0.000000	  0.000000	  0.000000	  1.163671	  0.000000	 -0.167873	  0.000000	  0.000000	  0.000000	  0.000000	  0.000000	  0.000000	  0.128924	  0.000000	 -0.317221	  0.000000	  0.000000	  0.000000
2.398500	  0.000000	  0.000000	  0.000000	  1.165069	  0.000000	 -0.166849	  0.000000	  0.000000	  0.000000	  0.000000	  0.000000	  0.000000	  0.128379	  0.000000	 -0.320038	  0.000000	  0.000000	  0.000000
2.399000	  0.000000	  0.000000	  0.000000	  1.166466	  0.000000	 -0.165825	  0.000000	  0.000000	  0.000000	  0.000000	  0.000000	  0.000000	  0.127834	  0.000000	 -0.322855	  0.000000	  0.000000	  0.000000
2.399500	  0.000000	  0.000000	  0.000000	  1.167864	  0.000000	 -0.164801	  0.000000	  0.000000	  0.000000	  0.000000	  0.000000	  0.000000	  0.127289	  0.000000	 -0.325672	  0.000000	  0.000000	  0.000000
2.400000	  0.000000	  0.000000	  0.000000	  1.169262	  0.000000	 -0.163777	  0.000000	  0.000000	  0.000000	  0.000000	  0.000000	  0.000000	  0.126744	  0.000000	 -0.328489	  0.000000	  0.000000	  0.000000
2.400500	  0.000000	  0.000000	  0.000000	  1.170305	  0.000000	 -0.162948	  0.000000	  0.000000	  0.000000	  0.000000	  0.000000	  0.000000	  0.126513	  0.000000	 -0.331194	  0.000000	  0.000000	  0.000000
2.401000	  0.000000	  0.000000	  0.000000	  1.171348	  0.000000	 -0.162119	  0.000000	  0.000000	  0.000000	  0.000000	  0.000000	  0.000000	  0.126283	  0.000000	 -0.333899	  0.000000	  0.000000	  0.000000
2.401500	  0.000000	  0.000000	  0.000000	  1.172391	  0.000000	 -0.161290	  0.000000	  0.000000	  0.000000	  0.000000	  0.000000	  0.000000	  0.126052	  0.000000	 -0.336603	  0.000000	  0.000000	  0.000000
2.402000	  0.000000	  0.000000	  0.000000	  1.173434	  0.000000	 -0.160461	  0.000000	  0.000000	  0.000000	  0.000000	  0.000000	  0.000000	  0.125821	  0.000000	 -0.339308	  0.000000	  0.000000	  0.000000
2.402500	  0.000000	  0.000000	  0.000000	  1.174477	  0.000000	 -0.159632	  0.000000	  0.000000	  0.000000	  0.000000	  0.000000	  0.000000	  0.125590	  0.000000	 -0.342013	  0.000000	  0.000000	  0.000000
2.403000	  0.000000	  0.000000	  0.000000	  1.175520	  0.000000	 -0.158803	  0.000000	  0.000000	  0.000000	  0.000000	  0.000000	  0.000000	  0.125360	  0.000000	 -0.344718	  0.000000	  0.000000	  0.000000
2.403500	  0.000000	  0.000000	  0.000000	  1.176563	  0.000000	 -0.157974	  0.000000	  0.000000	  0.000000	  0.000000	  0.000000	  0.000000	  0.125129	  0.000000	 -0.347423	  0.000000	  0.000000	  0.000000
2.404000	  0.000000	  0.000000	  0.000000	  1.177606	  0.000000	 -0.157145	  0.000000	  0.000000	  0.000000	  0.000000	  0.000000	  0.000000	  0.124898	  0.000000	 -0.350127	  0.000000	  0.000000	  0.000000
2.404500	  0.000000	  0.000000	  0.000000	  1.178649	  0.000000	 -0.156316	  0.000000	  0.000000	  0.000000	  0.000000	  0.000000	  0.000000	  0.124668	  0.000000	 -0.352832	  0.000000	  0.000000	  0.000000
2.405000	  0.000000	  0.000000	  0.000000	  1.179692	  0.000000	 -0.155487	  0.000000	  0.000000	  0.000000	  0.000000	  0.000000	  0.000000	  0.124437	  0.000000	 -0.355537	  0.000000	  0.000000	  0.000000
2.405500	  0.000000	  0.000000	  0.000000	  1.180345	  0.000000	 -0.154770	  0.000000	  0.000000	  0.000000	  0.000000	  0.000000	  0.000000	  0.124505	  0.000000	 -0.358151	  0.000000	  0.000000	  0.000000
2.406000	  0.000000	  0.000000	  0.000000	  1.180998	  0.000000	 -0.154053	  0.000000	  0.000000	  0.000000	  0.000000	  0.000000	  0.000000	  0.124573	  0.000000	 -0.360764	  0.000000	  0.000000	  0.000000
2.406500	  0.000000	  0.000000	  0.000000	  1.181651	  0.000000	 -0.153335	  0.000000	  0.000000	  0.000000	  0.000000	  0.000000	  0.000000	  0.124642	  0.000000	 -0.363377	  0.000000	  0.000000	  0.000000
2.407000	  0.000000	  0.000000	  0.000000	  1.182304	  0.000000	 -0.152618	  0.000000	  0.000000	  0.000000	  0.000000	  0.000000	  0.000000	  0.124710	  0.000000	 -0.365991	  0.000000	  0.000000	  0.000000
2.407500	  0.000000	  0.000000	  0.000000	  1.182957	  0.000000	 -0.151901	  0.000000	  0.000000	  0.000000	  0.000000	  0.000000	  0.000000	  0.124778	  0.000000	 -0.368605	  0.000000	  0.000000	  0.000000
2.408000	  0.000000	  0.000000	  0.000000	  1.183609	  0.000000	 -0.151184	  0.000000	  0.000000	  0.000000	  0.000000	  0.000000	  0.000000	  0.124846	  0.000000	 -0.371218	  0.000000	  0.000000	  0.000000
